<svg xmlns="http://www.w3.org/2000/svg" viewBox="0 0 200 200">
  <!-- Background radial gradient -->
  <defs>
    <radialGradient id="background" cx="50%" cy="50%" r="50%" fx="50%" fy="50%">
      <stop offset="0%" stop-color="#ffffff" />
      <stop offset="100%" stop-color="#f0f0f0" />
    </radialGradient>
  </defs>
  <circle cx="100" cy="100" r="75" fill="url(#background)" />
  <!-- Wizard hat - cuter rounded version -->
  <path d="M100,20 C90,40 70,70 70,80 L130,80 C130,70 110,40 100,20 Z" 
        fill="#1A56B8" 
        stroke="#000000" 
        stroke-width="2.5" />
  <!-- Hat band -->
  <path d="M73,75 L127,75" 
        stroke="#000" 
        stroke-width="2" />
  
  <!-- Hat stars/sparkles - added more stars -->
  <path d="M90,46 L92,50 L97,50 L93,53 L95,58 L90,55 L85,58 L87,53 L83,50 L88,50 Z" 
        fill="white" 
        stroke="#000000" 
        stroke-width="0.5" 
        stroke-linejoin="round" />
  <path d="M110,56 L112,60 L117,60 L113,63 L115,68 L110,65 L105,68 L107,63 L103,60 L108,60 Z" 
        fill="white" 
        stroke="#000000" 
        stroke-width="0.5" 
        stroke-linejoin="round" />
  <path d="M100,36 L102,40 L107,40 L103,43 L105,48 L100,45 L95,48 L97,43 L93,40 L98,40 Z" 
        fill="white" 
        stroke="#000000" 
        stroke-width="0.5" 
        stroke-linejoin="round" />
  
  <!-- Robot head - rounder and cuter -->
  <rect x="70" y="80" width="60" height="50" 
        fill="#4294FF" 
        stroke="#000000" 
        stroke-width="2.5" 
        rx="10" />
        
  <!-- Friendly eyebrows -->
  <path d="M80,92 C83,90 87,90 90,92" 
        fill="none" 
        stroke="#000000" 
        stroke-width="1.5" 
        stroke-linecap="round" />
  <path d="M110,92 C113,90 117,90 120,92" 
        fill="none" 
        stroke="#000000" 
        stroke-width="1.5" 
        stroke-linecap="round" />
  
  <!-- Robot eyes - cuter simple version -->
  <circle cx="85" cy="100" r="5" fill="white" stroke="#000000" stroke-width="1.5" />
  <circle cx="115" cy="100" r="5" fill="white" stroke="#000000" stroke-width="1.5" />
  
  <!-- Robot antenna/sensors -->
  <rect x="80" y="130" width="10" height="15" fill="#1A56B8" stroke="#000000" stroke-width="1.5" />
  <rect x="110" y="130" width="10" height="15" fill="#1A56B8" stroke="#000000" stroke-width="1.5" />
  <!-- Antenna connections -->
  <circle cx="85" cy="145" r="2" fill="#444444" stroke="#000000" stroke-width="0.75" />
  <circle cx="115" cy="145" r="2" fill="#444444" stroke="#000000" stroke-width="0.75" />
  <!-- Neck section -->
  <rect x="90" y="130" width="20" height="5" fill="#333333" stroke="#000000" stroke-width="1" />
  
  <!-- Robot mouth - asymmetrical smirk -->
  <path d="M95,115 Q98,118 105,115" 
        fill="none" 
        stroke="#000000" 
        stroke-width="1.5" 
        stroke-linecap="round" />
</svg>